<mxfile host="app.diagrams.net" agent="Mozilla/5.0 (Windows NT 10.0; Win64; x64) AppleWebKit/537.36 (KHTML, like Gecko) Chrome/132.0.0.0 Safari/537.36" version="26.0.6">
  <diagram name="Page-1" id="Vqd0jZAL3CCid9w5uyrD">
    <mxGraphModel dx="1502" dy="557" grid="0" gridSize="10" guides="1" tooltips="1" connect="1" arrows="1" fold="1" page="1" pageScale="1" pageWidth="1169" pageHeight="827" math="0" shadow="0">
      <root>
        <mxCell id="0" />
        <mxCell id="1" parent="0" />
        <mxCell id="2Bdbf0oeXUwK7qes-A6N-1" value="Employee" style="swimlane;fontStyle=1;align=center;verticalAlign=top;childLayout=stackLayout;horizontal=1;startSize=26;horizontalStack=0;resizeParent=1;resizeParentMax=0;resizeLast=0;collapsible=1;marginBottom=0;whiteSpace=wrap;html=1;" vertex="1" parent="1">
          <mxGeometry x="34" y="172" width="229" height="164" as="geometry" />
        </mxCell>
        <mxCell id="2Bdbf0oeXUwK7qes-A6N-2" value="- department: String" style="text;strokeColor=none;fillColor=none;align=left;verticalAlign=top;spacingLeft=4;spacingRight=4;overflow=hidden;rotatable=0;points=[[0,0.5],[1,0.5]];portConstraint=eastwest;whiteSpace=wrap;html=1;" vertex="1" parent="2Bdbf0oeXUwK7qes-A6N-1">
          <mxGeometry y="26" width="229" height="26" as="geometry" />
        </mxCell>
        <mxCell id="2Bdbf0oeXUwK7qes-A6N-5" value="- empID: int" style="text;strokeColor=none;fillColor=none;align=left;verticalAlign=top;spacingLeft=4;spacingRight=4;overflow=hidden;rotatable=0;points=[[0,0.5],[1,0.5]];portConstraint=eastwest;whiteSpace=wrap;html=1;" vertex="1" parent="2Bdbf0oeXUwK7qes-A6N-1">
          <mxGeometry y="52" width="229" height="26" as="geometry" />
        </mxCell>
        <mxCell id="2Bdbf0oeXUwK7qes-A6N-3" value="" style="line;strokeWidth=1;fillColor=none;align=left;verticalAlign=middle;spacingTop=-1;spacingLeft=3;spacingRight=3;rotatable=0;labelPosition=right;points=[];portConstraint=eastwest;strokeColor=inherit;" vertex="1" parent="2Bdbf0oeXUwK7qes-A6N-1">
          <mxGeometry y="78" width="229" height="8" as="geometry" />
        </mxCell>
        <mxCell id="2Bdbf0oeXUwK7qes-A6N-4" value="+ Employee(employeeId: int)" style="text;strokeColor=none;fillColor=none;align=left;verticalAlign=top;spacingLeft=4;spacingRight=4;overflow=hidden;rotatable=0;points=[[0,0.5],[1,0.5]];portConstraint=eastwest;whiteSpace=wrap;html=1;" vertex="1" parent="2Bdbf0oeXUwK7qes-A6N-1">
          <mxGeometry y="86" width="229" height="26" as="geometry" />
        </mxCell>
        <mxCell id="2Bdbf0oeXUwK7qes-A6N-6" value="+ getEmployee(emplId: int): String" style="text;strokeColor=none;fillColor=none;align=left;verticalAlign=top;spacingLeft=4;spacingRight=4;overflow=hidden;rotatable=0;points=[[0,0.5],[1,0.5]];portConstraint=eastwest;whiteSpace=wrap;html=1;" vertex="1" parent="2Bdbf0oeXUwK7qes-A6N-1">
          <mxGeometry y="112" width="229" height="26" as="geometry" />
        </mxCell>
        <mxCell id="2Bdbf0oeXUwK7qes-A6N-7" value="+ getDepartment( ): String" style="text;strokeColor=none;fillColor=none;align=left;verticalAlign=top;spacingLeft=4;spacingRight=4;overflow=hidden;rotatable=0;points=[[0,0.5],[1,0.5]];portConstraint=eastwest;whiteSpace=wrap;html=1;" vertex="1" parent="2Bdbf0oeXUwK7qes-A6N-1">
          <mxGeometry y="138" width="229" height="26" as="geometry" />
        </mxCell>
        <mxCell id="2Bdbf0oeXUwK7qes-A6N-8" value="Car" style="swimlane;fontStyle=1;align=center;verticalAlign=top;childLayout=stackLayout;horizontal=1;startSize=26;horizontalStack=0;resizeParent=1;resizeParentMax=0;resizeLast=0;collapsible=1;marginBottom=0;whiteSpace=wrap;html=1;" vertex="1" parent="1">
          <mxGeometry x="34" y="377" width="229" height="138" as="geometry" />
        </mxCell>
        <mxCell id="2Bdbf0oeXUwK7qes-A6N-9" value="- carColor: String" style="text;strokeColor=none;fillColor=none;align=left;verticalAlign=top;spacingLeft=4;spacingRight=4;overflow=hidden;rotatable=0;points=[[0,0.5],[1,0.5]];portConstraint=eastwest;whiteSpace=wrap;html=1;" vertex="1" parent="2Bdbf0oeXUwK7qes-A6N-8">
          <mxGeometry y="26" width="229" height="26" as="geometry" />
        </mxCell>
        <mxCell id="2Bdbf0oeXUwK7qes-A6N-10" value="- carPrice: double = 0.0" style="text;strokeColor=none;fillColor=none;align=left;verticalAlign=top;spacingLeft=4;spacingRight=4;overflow=hidden;rotatable=0;points=[[0,0.5],[1,0.5]];portConstraint=eastwest;whiteSpace=wrap;html=1;" vertex="1" parent="2Bdbf0oeXUwK7qes-A6N-8">
          <mxGeometry y="52" width="229" height="26" as="geometry" />
        </mxCell>
        <mxCell id="2Bdbf0oeXUwK7qes-A6N-11" value="" style="line;strokeWidth=1;fillColor=none;align=left;verticalAlign=middle;spacingTop=-1;spacingLeft=3;spacingRight=3;rotatable=0;labelPosition=right;points=[];portConstraint=eastwest;strokeColor=inherit;" vertex="1" parent="2Bdbf0oeXUwK7qes-A6N-8">
          <mxGeometry y="78" width="229" height="8" as="geometry" />
        </mxCell>
        <mxCell id="2Bdbf0oeXUwK7qes-A6N-12" value="+ getCarColor(model: String): String" style="text;strokeColor=none;fillColor=none;align=left;verticalAlign=top;spacingLeft=4;spacingRight=4;overflow=hidden;rotatable=0;points=[[0,0.5],[1,0.5]];portConstraint=eastwest;whiteSpace=wrap;html=1;" vertex="1" parent="2Bdbf0oeXUwK7qes-A6N-8">
          <mxGeometry y="86" width="229" height="26" as="geometry" />
        </mxCell>
        <mxCell id="2Bdbf0oeXUwK7qes-A6N-13" value="+ getCarPrice(model: String): double" style="text;strokeColor=none;fillColor=none;align=left;verticalAlign=top;spacingLeft=4;spacingRight=4;overflow=hidden;rotatable=0;points=[[0,0.5],[1,0.5]];portConstraint=eastwest;whiteSpace=wrap;html=1;" vertex="1" parent="2Bdbf0oeXUwK7qes-A6N-8">
          <mxGeometry y="112" width="229" height="26" as="geometry" />
        </mxCell>
        <mxCell id="2Bdbf0oeXUwK7qes-A6N-15" value="PC" style="swimlane;fontStyle=1;align=center;verticalAlign=top;childLayout=stackLayout;horizontal=1;startSize=26;horizontalStack=0;resizeParent=1;resizeParentMax=0;resizeLast=0;collapsible=1;marginBottom=0;whiteSpace=wrap;html=1;" vertex="1" parent="1">
          <mxGeometry x="286" y="172" width="229" height="138" as="geometry" />
        </mxCell>
        <mxCell id="2Bdbf0oeXUwK7qes-A6N-16" value="~ i: int =3" style="text;strokeColor=none;fillColor=none;align=left;verticalAlign=top;spacingLeft=4;spacingRight=4;overflow=hidden;rotatable=0;points=[[0,0.5],[1,0.5]];portConstraint=eastwest;whiteSpace=wrap;html=1;" vertex="1" parent="2Bdbf0oeXUwK7qes-A6N-15">
          <mxGeometry y="26" width="229" height="26" as="geometry" />
        </mxCell>
        <mxCell id="2Bdbf0oeXUwK7qes-A6N-17" value="~ j: int =5" style="text;strokeColor=none;fillColor=none;align=left;verticalAlign=top;spacingLeft=4;spacingRight=4;overflow=hidden;rotatable=0;points=[[0,0.5],[1,0.5]];portConstraint=eastwest;whiteSpace=wrap;html=1;" vertex="1" parent="2Bdbf0oeXUwK7qes-A6N-15">
          <mxGeometry y="52" width="229" height="26" as="geometry" />
        </mxCell>
        <mxCell id="2Bdbf0oeXUwK7qes-A6N-21" value="~ name: String =&quot;myName&quot;" style="text;strokeColor=none;fillColor=none;align=left;verticalAlign=top;spacingLeft=4;spacingRight=4;overflow=hidden;rotatable=0;points=[[0,0.5],[1,0.5]];portConstraint=eastwest;whiteSpace=wrap;html=1;" vertex="1" parent="2Bdbf0oeXUwK7qes-A6N-15">
          <mxGeometry y="78" width="229" height="26" as="geometry" />
        </mxCell>
        <mxCell id="2Bdbf0oeXUwK7qes-A6N-18" value="" style="line;strokeWidth=1;fillColor=none;align=left;verticalAlign=middle;spacingTop=-1;spacingLeft=3;spacingRight=3;rotatable=0;labelPosition=right;points=[];portConstraint=eastwest;strokeColor=inherit;" vertex="1" parent="2Bdbf0oeXUwK7qes-A6N-15">
          <mxGeometry y="104" width="229" height="8" as="geometry" />
        </mxCell>
        <mxCell id="2Bdbf0oeXUwK7qes-A6N-19" value="+ getName( ): void" style="text;strokeColor=none;fillColor=none;align=left;verticalAlign=top;spacingLeft=4;spacingRight=4;overflow=hidden;rotatable=0;points=[[0,0.5],[1,0.5]];portConstraint=eastwest;whiteSpace=wrap;html=1;" vertex="1" parent="2Bdbf0oeXUwK7qes-A6N-15">
          <mxGeometry y="112" width="229" height="26" as="geometry" />
        </mxCell>
        <mxCell id="2Bdbf0oeXUwK7qes-A6N-28" style="edgeStyle=orthogonalEdgeStyle;rounded=0;orthogonalLoop=1;jettySize=auto;html=1;endArrow=block;endFill=0;endSize=15;" edge="1" parent="1" source="2Bdbf0oeXUwK7qes-A6N-22" target="2Bdbf0oeXUwK7qes-A6N-15">
          <mxGeometry relative="1" as="geometry" />
        </mxCell>
        <mxCell id="2Bdbf0oeXUwK7qes-A6N-22" value="CC" style="swimlane;fontStyle=1;align=center;verticalAlign=top;childLayout=stackLayout;horizontal=1;startSize=26;horizontalStack=0;resizeParent=1;resizeParentMax=0;resizeLast=0;collapsible=1;marginBottom=0;whiteSpace=wrap;html=1;" vertex="1" parent="1">
          <mxGeometry x="286" y="403" width="229" height="138" as="geometry" />
        </mxCell>
        <mxCell id="2Bdbf0oeXUwK7qes-A6N-23" value="~ i: int =3" style="text;strokeColor=none;fillColor=none;align=left;verticalAlign=top;spacingLeft=4;spacingRight=4;overflow=hidden;rotatable=0;points=[[0,0.5],[1,0.5]];portConstraint=eastwest;whiteSpace=wrap;html=1;" vertex="1" parent="2Bdbf0oeXUwK7qes-A6N-22">
          <mxGeometry y="26" width="229" height="26" as="geometry" />
        </mxCell>
        <mxCell id="2Bdbf0oeXUwK7qes-A6N-24" value="~ j: int =5" style="text;strokeColor=none;fillColor=none;align=left;verticalAlign=top;spacingLeft=4;spacingRight=4;overflow=hidden;rotatable=0;points=[[0,0.5],[1,0.5]];portConstraint=eastwest;whiteSpace=wrap;html=1;" vertex="1" parent="2Bdbf0oeXUwK7qes-A6N-22">
          <mxGeometry y="52" width="229" height="26" as="geometry" />
        </mxCell>
        <mxCell id="2Bdbf0oeXUwK7qes-A6N-25" value="~ name: String =&quot;myName&quot;" style="text;strokeColor=none;fillColor=none;align=left;verticalAlign=top;spacingLeft=4;spacingRight=4;overflow=hidden;rotatable=0;points=[[0,0.5],[1,0.5]];portConstraint=eastwest;whiteSpace=wrap;html=1;" vertex="1" parent="2Bdbf0oeXUwK7qes-A6N-22">
          <mxGeometry y="78" width="229" height="26" as="geometry" />
        </mxCell>
        <mxCell id="2Bdbf0oeXUwK7qes-A6N-26" value="" style="line;strokeWidth=1;fillColor=none;align=left;verticalAlign=middle;spacingTop=-1;spacingLeft=3;spacingRight=3;rotatable=0;labelPosition=right;points=[];portConstraint=eastwest;strokeColor=inherit;" vertex="1" parent="2Bdbf0oeXUwK7qes-A6N-22">
          <mxGeometry y="104" width="229" height="8" as="geometry" />
        </mxCell>
        <mxCell id="2Bdbf0oeXUwK7qes-A6N-27" value="+ getName( ): void" style="text;strokeColor=none;fillColor=none;align=left;verticalAlign=top;spacingLeft=4;spacingRight=4;overflow=hidden;rotatable=0;points=[[0,0.5],[1,0.5]];portConstraint=eastwest;whiteSpace=wrap;html=1;" vertex="1" parent="2Bdbf0oeXUwK7qes-A6N-22">
          <mxGeometry y="112" width="229" height="26" as="geometry" />
        </mxCell>
        <mxCell id="2Bdbf0oeXUwK7qes-A6N-39" style="edgeStyle=orthogonalEdgeStyle;rounded=0;orthogonalLoop=1;jettySize=auto;html=1;startSize=6;endSize=15;endArrow=block;endFill=0;" edge="1" parent="1" source="2Bdbf0oeXUwK7qes-A6N-29" target="2Bdbf0oeXUwK7qes-A6N-35">
          <mxGeometry relative="1" as="geometry" />
        </mxCell>
        <mxCell id="2Bdbf0oeXUwK7qes-A6N-29" value="OwnerClass" style="swimlane;fontStyle=1;align=center;verticalAlign=top;childLayout=stackLayout;horizontal=1;startSize=26;horizontalStack=0;resizeParent=1;resizeParentMax=0;resizeLast=0;collapsible=1;marginBottom=0;whiteSpace=wrap;html=1;" vertex="1" parent="1">
          <mxGeometry x="530" y="267" width="229" height="86" as="geometry" />
        </mxCell>
        <mxCell id="2Bdbf0oeXUwK7qes-A6N-30" value="- associatedClass: OwnedClass" style="text;strokeColor=none;fillColor=none;align=left;verticalAlign=top;spacingLeft=4;spacingRight=4;overflow=hidden;rotatable=0;points=[[0,0.5],[1,0.5]];portConstraint=eastwest;whiteSpace=wrap;html=1;" vertex="1" parent="2Bdbf0oeXUwK7qes-A6N-29">
          <mxGeometry y="26" width="229" height="26" as="geometry" />
        </mxCell>
        <mxCell id="2Bdbf0oeXUwK7qes-A6N-33" value="" style="line;strokeWidth=1;fillColor=none;align=left;verticalAlign=middle;spacingTop=-1;spacingLeft=3;spacingRight=3;rotatable=0;labelPosition=right;points=[];portConstraint=eastwest;strokeColor=inherit;" vertex="1" parent="2Bdbf0oeXUwK7qes-A6N-29">
          <mxGeometry y="52" width="229" height="8" as="geometry" />
        </mxCell>
        <mxCell id="2Bdbf0oeXUwK7qes-A6N-34" value="+ otherClass: OwnerClass" style="text;strokeColor=none;fillColor=none;align=left;verticalAlign=top;spacingLeft=4;spacingRight=4;overflow=hidden;rotatable=0;points=[[0,0.5],[1,0.5]];portConstraint=eastwest;whiteSpace=wrap;html=1;" vertex="1" parent="2Bdbf0oeXUwK7qes-A6N-29">
          <mxGeometry y="60" width="229" height="26" as="geometry" />
        </mxCell>
        <mxCell id="2Bdbf0oeXUwK7qes-A6N-35" value="OwnedClass" style="swimlane;fontStyle=1;align=center;verticalAlign=top;childLayout=stackLayout;horizontal=1;startSize=26;horizontalStack=0;resizeParent=1;resizeParentMax=0;resizeLast=0;collapsible=1;marginBottom=0;whiteSpace=wrap;html=1;" vertex="1" parent="1">
          <mxGeometry x="530" y="172" width="229" height="34" as="geometry" />
        </mxCell>
        <mxCell id="2Bdbf0oeXUwK7qes-A6N-37" value="" style="line;strokeWidth=1;fillColor=none;align=left;verticalAlign=middle;spacingTop=-1;spacingLeft=3;spacingRight=3;rotatable=0;labelPosition=right;points=[];portConstraint=eastwest;strokeColor=inherit;" vertex="1" parent="2Bdbf0oeXUwK7qes-A6N-35">
          <mxGeometry y="26" width="229" height="8" as="geometry" />
        </mxCell>
        <mxCell id="2Bdbf0oeXUwK7qes-A6N-40" value="User" style="swimlane;fontStyle=1;align=center;verticalAlign=top;childLayout=stackLayout;horizontal=1;startSize=26;horizontalStack=0;resizeParent=1;resizeParentMax=0;resizeLast=0;collapsible=1;marginBottom=0;whiteSpace=wrap;html=1;" vertex="1" parent="1">
          <mxGeometry x="770" y="172" width="229" height="112" as="geometry" />
        </mxCell>
        <mxCell id="2Bdbf0oeXUwK7qes-A6N-41" value="- email: String" style="text;strokeColor=none;fillColor=none;align=left;verticalAlign=top;spacingLeft=4;spacingRight=4;overflow=hidden;rotatable=0;points=[[0,0.5],[1,0.5]];portConstraint=eastwest;whiteSpace=wrap;html=1;" vertex="1" parent="2Bdbf0oeXUwK7qes-A6N-40">
          <mxGeometry y="26" width="229" height="26" as="geometry" />
        </mxCell>
        <mxCell id="2Bdbf0oeXUwK7qes-A6N-44" value="" style="line;strokeWidth=1;fillColor=none;align=left;verticalAlign=middle;spacingTop=-1;spacingLeft=3;spacingRight=3;rotatable=0;labelPosition=right;points=[];portConstraint=eastwest;strokeColor=inherit;" vertex="1" parent="2Bdbf0oeXUwK7qes-A6N-40">
          <mxGeometry y="52" width="229" height="8" as="geometry" />
        </mxCell>
        <mxCell id="2Bdbf0oeXUwK7qes-A6N-45" value="+ getEmail( ): String" style="text;strokeColor=none;fillColor=none;align=left;verticalAlign=top;spacingLeft=4;spacingRight=4;overflow=hidden;rotatable=0;points=[[0,0.5],[1,0.5]];portConstraint=eastwest;whiteSpace=wrap;html=1;" vertex="1" parent="2Bdbf0oeXUwK7qes-A6N-40">
          <mxGeometry y="60" width="229" height="26" as="geometry" />
        </mxCell>
        <mxCell id="2Bdbf0oeXUwK7qes-A6N-46" value="+ setEmail(add: String): void" style="text;strokeColor=none;fillColor=none;align=left;verticalAlign=top;spacingLeft=4;spacingRight=4;overflow=hidden;rotatable=0;points=[[0,0.5],[1,0.5]];portConstraint=eastwest;whiteSpace=wrap;html=1;" vertex="1" parent="2Bdbf0oeXUwK7qes-A6N-40">
          <mxGeometry y="86" width="229" height="26" as="geometry" />
        </mxCell>
        <mxCell id="2Bdbf0oeXUwK7qes-A6N-52" style="edgeStyle=orthogonalEdgeStyle;rounded=0;orthogonalLoop=1;jettySize=auto;html=1;endSize=15;endArrow=block;endFill=0;" edge="1" parent="1" source="2Bdbf0oeXUwK7qes-A6N-47" target="2Bdbf0oeXUwK7qes-A6N-40">
          <mxGeometry relative="1" as="geometry" />
        </mxCell>
        <mxCell id="2Bdbf0oeXUwK7qes-A6N-47" value="Owner" style="swimlane;fontStyle=1;align=center;verticalAlign=top;childLayout=stackLayout;horizontal=1;startSize=26;horizontalStack=0;resizeParent=1;resizeParentMax=0;resizeLast=0;collapsible=1;marginBottom=0;whiteSpace=wrap;html=1;" vertex="1" parent="1">
          <mxGeometry x="770" y="344" width="229" height="86" as="geometry" />
        </mxCell>
        <mxCell id="2Bdbf0oeXUwK7qes-A6N-48" value="- maxNum: int" style="text;strokeColor=none;fillColor=none;align=left;verticalAlign=top;spacingLeft=4;spacingRight=4;overflow=hidden;rotatable=0;points=[[0,0.5],[1,0.5]];portConstraint=eastwest;whiteSpace=wrap;html=1;" vertex="1" parent="2Bdbf0oeXUwK7qes-A6N-47">
          <mxGeometry y="26" width="229" height="26" as="geometry" />
        </mxCell>
        <mxCell id="2Bdbf0oeXUwK7qes-A6N-49" value="" style="line;strokeWidth=1;fillColor=none;align=left;verticalAlign=middle;spacingTop=-1;spacingLeft=3;spacingRight=3;rotatable=0;labelPosition=right;points=[];portConstraint=eastwest;strokeColor=inherit;" vertex="1" parent="2Bdbf0oeXUwK7qes-A6N-47">
          <mxGeometry y="52" width="229" height="8" as="geometry" />
        </mxCell>
        <mxCell id="2Bdbf0oeXUwK7qes-A6N-51" value="+ getMaxNum( ): int" style="text;strokeColor=none;fillColor=none;align=left;verticalAlign=top;spacingLeft=4;spacingRight=4;overflow=hidden;rotatable=0;points=[[0,0.5],[1,0.5]];portConstraint=eastwest;whiteSpace=wrap;html=1;" vertex="1" parent="2Bdbf0oeXUwK7qes-A6N-47">
          <mxGeometry y="60" width="229" height="26" as="geometry" />
        </mxCell>
        <mxCell id="2Bdbf0oeXUwK7qes-A6N-53" value="&amp;lt;&amp;lt;interface&amp;gt;&amp;gt;&lt;br&gt;interface1" style="swimlane;fontStyle=1;align=center;verticalAlign=top;childLayout=stackLayout;horizontal=1;startSize=40;horizontalStack=0;resizeParent=1;resizeParentMax=0;resizeLast=0;collapsible=1;marginBottom=0;whiteSpace=wrap;html=1;" vertex="1" parent="1">
          <mxGeometry x="104" y="944" width="229" height="74" as="geometry" />
        </mxCell>
        <mxCell id="2Bdbf0oeXUwK7qes-A6N-57" value="" style="line;strokeWidth=1;fillColor=none;align=left;verticalAlign=middle;spacingTop=-1;spacingLeft=3;spacingRight=3;rotatable=0;labelPosition=right;points=[];portConstraint=eastwest;strokeColor=inherit;" vertex="1" parent="2Bdbf0oeXUwK7qes-A6N-53">
          <mxGeometry y="40" width="229" height="8" as="geometry" />
        </mxCell>
        <mxCell id="2Bdbf0oeXUwK7qes-A6N-58" value="+ method( ): void" style="text;strokeColor=none;fillColor=none;align=left;verticalAlign=top;spacingLeft=4;spacingRight=4;overflow=hidden;rotatable=0;points=[[0,0.5],[1,0.5]];portConstraint=eastwest;whiteSpace=wrap;html=1;" vertex="1" parent="2Bdbf0oeXUwK7qes-A6N-53">
          <mxGeometry y="48" width="229" height="26" as="geometry" />
        </mxCell>
        <mxCell id="2Bdbf0oeXUwK7qes-A6N-62" value="Class1" style="swimlane;fontStyle=1;align=center;verticalAlign=top;childLayout=stackLayout;horizontal=1;startSize=26;horizontalStack=0;resizeParent=1;resizeParentMax=0;resizeLast=0;collapsible=1;marginBottom=0;whiteSpace=wrap;html=1;" vertex="1" parent="1">
          <mxGeometry x="365" y="1027" width="229" height="60" as="geometry" />
        </mxCell>
        <mxCell id="2Bdbf0oeXUwK7qes-A6N-63" value="# field1: String" style="text;strokeColor=none;fillColor=none;align=left;verticalAlign=top;spacingLeft=4;spacingRight=4;overflow=hidden;rotatable=0;points=[[0,0.5],[1,0.5]];portConstraint=eastwest;whiteSpace=wrap;html=1;" vertex="1" parent="2Bdbf0oeXUwK7qes-A6N-62">
          <mxGeometry y="26" width="229" height="26" as="geometry" />
        </mxCell>
        <mxCell id="2Bdbf0oeXUwK7qes-A6N-66" value="" style="line;strokeWidth=1;fillColor=none;align=left;verticalAlign=middle;spacingTop=-1;spacingLeft=3;spacingRight=3;rotatable=0;labelPosition=right;points=[];portConstraint=eastwest;strokeColor=inherit;" vertex="1" parent="2Bdbf0oeXUwK7qes-A6N-62">
          <mxGeometry y="52" width="229" height="8" as="geometry" />
        </mxCell>
        <mxCell id="2Bdbf0oeXUwK7qes-A6N-73" style="edgeStyle=orthogonalEdgeStyle;rounded=0;orthogonalLoop=1;jettySize=auto;html=1;endArrow=open;endFill=0;dashed=1;" edge="1" parent="1" source="2Bdbf0oeXUwK7qes-A6N-68" target="2Bdbf0oeXUwK7qes-A6N-53">
          <mxGeometry relative="1" as="geometry" />
        </mxCell>
        <mxCell id="2Bdbf0oeXUwK7qes-A6N-74" style="edgeStyle=orthogonalEdgeStyle;rounded=0;orthogonalLoop=1;jettySize=auto;html=1;endArrow=block;endFill=0;endSize=15;" edge="1" parent="1" source="2Bdbf0oeXUwK7qes-A6N-68" target="2Bdbf0oeXUwK7qes-A6N-62">
          <mxGeometry relative="1" as="geometry" />
        </mxCell>
        <mxCell id="2Bdbf0oeXUwK7qes-A6N-68" value="Class2" style="swimlane;fontStyle=1;align=center;verticalAlign=top;childLayout=stackLayout;horizontal=1;startSize=26;horizontalStack=0;resizeParent=1;resizeParentMax=0;resizeLast=0;collapsible=1;marginBottom=0;whiteSpace=wrap;html=1;" vertex="1" parent="1">
          <mxGeometry x="104" y="1142" width="229" height="86" as="geometry" />
        </mxCell>
        <mxCell id="2Bdbf0oeXUwK7qes-A6N-69" value="~ field2: int" style="text;strokeColor=none;fillColor=none;align=left;verticalAlign=top;spacingLeft=4;spacingRight=4;overflow=hidden;rotatable=0;points=[[0,0.5],[1,0.5]];portConstraint=eastwest;whiteSpace=wrap;html=1;" vertex="1" parent="2Bdbf0oeXUwK7qes-A6N-68">
          <mxGeometry y="26" width="229" height="26" as="geometry" />
        </mxCell>
        <mxCell id="2Bdbf0oeXUwK7qes-A6N-70" value="" style="line;strokeWidth=1;fillColor=none;align=left;verticalAlign=middle;spacingTop=-1;spacingLeft=3;spacingRight=3;rotatable=0;labelPosition=right;points=[];portConstraint=eastwest;strokeColor=inherit;" vertex="1" parent="2Bdbf0oeXUwK7qes-A6N-68">
          <mxGeometry y="52" width="229" height="8" as="geometry" />
        </mxCell>
        <mxCell id="2Bdbf0oeXUwK7qes-A6N-71" value="+ method1( ): void" style="text;strokeColor=none;fillColor=none;align=left;verticalAlign=top;spacingLeft=4;spacingRight=4;overflow=hidden;rotatable=0;points=[[0,0.5],[1,0.5]];portConstraint=eastwest;whiteSpace=wrap;html=1;" vertex="1" parent="2Bdbf0oeXUwK7qes-A6N-68">
          <mxGeometry y="60" width="229" height="26" as="geometry" />
        </mxCell>
        <mxCell id="2Bdbf0oeXUwK7qes-A6N-75" value="Server" style="swimlane;fontStyle=1;align=center;verticalAlign=top;childLayout=stackLayout;horizontal=1;startSize=26;horizontalStack=0;resizeParent=1;resizeParentMax=0;resizeLast=0;collapsible=1;marginBottom=0;whiteSpace=wrap;html=1;" vertex="1" parent="1">
          <mxGeometry x="74" y="1776" width="229" height="138" as="geometry" />
        </mxCell>
        <mxCell id="2Bdbf0oeXUwK7qes-A6N-76" value="-private uptime: long" style="text;strokeColor=none;fillColor=none;align=left;verticalAlign=top;spacingLeft=4;spacingRight=4;overflow=hidden;rotatable=0;points=[[0,0.5],[1,0.5]];portConstraint=eastwest;whiteSpace=wrap;html=1;" vertex="1" parent="2Bdbf0oeXUwK7qes-A6N-75">
          <mxGeometry y="26" width="229" height="26" as="geometry" />
        </mxCell>
        <mxCell id="2Bdbf0oeXUwK7qes-A6N-77" value="" style="line;strokeWidth=1;fillColor=none;align=left;verticalAlign=middle;spacingTop=-1;spacingLeft=3;spacingRight=3;rotatable=0;labelPosition=right;points=[];portConstraint=eastwest;strokeColor=inherit;" vertex="1" parent="2Bdbf0oeXUwK7qes-A6N-75">
          <mxGeometry y="52" width="229" height="8" as="geometry" />
        </mxCell>
        <mxCell id="2Bdbf0oeXUwK7qes-A6N-78" value="+ start( ): void" style="text;strokeColor=none;fillColor=none;align=left;verticalAlign=top;spacingLeft=4;spacingRight=4;overflow=hidden;rotatable=0;points=[[0,0.5],[1,0.5]];portConstraint=eastwest;whiteSpace=wrap;html=1;" vertex="1" parent="2Bdbf0oeXUwK7qes-A6N-75">
          <mxGeometry y="60" width="229" height="26" as="geometry" />
        </mxCell>
        <mxCell id="2Bdbf0oeXUwK7qes-A6N-79" value="+ stop( ): void" style="text;strokeColor=none;fillColor=none;align=left;verticalAlign=top;spacingLeft=4;spacingRight=4;overflow=hidden;rotatable=0;points=[[0,0.5],[1,0.5]];portConstraint=eastwest;whiteSpace=wrap;html=1;" vertex="1" parent="2Bdbf0oeXUwK7qes-A6N-75">
          <mxGeometry y="86" width="229" height="26" as="geometry" />
        </mxCell>
        <mxCell id="2Bdbf0oeXUwK7qes-A6N-80" value="+ uptime( ): long" style="text;strokeColor=none;fillColor=none;align=left;verticalAlign=top;spacingLeft=4;spacingRight=4;overflow=hidden;rotatable=0;points=[[0,0.5],[1,0.5]];portConstraint=eastwest;whiteSpace=wrap;html=1;" vertex="1" parent="2Bdbf0oeXUwK7qes-A6N-75">
          <mxGeometry y="112" width="229" height="26" as="geometry" />
        </mxCell>
        <mxCell id="2Bdbf0oeXUwK7qes-A6N-87" style="edgeStyle=orthogonalEdgeStyle;rounded=0;orthogonalLoop=1;jettySize=auto;html=1;endArrow=block;endFill=0;endSize=15;" edge="1" parent="1" source="2Bdbf0oeXUwK7qes-A6N-81" target="2Bdbf0oeXUwK7qes-A6N-75">
          <mxGeometry relative="1" as="geometry" />
        </mxCell>
        <mxCell id="2Bdbf0oeXUwK7qes-A6N-81" value="Tomcat" style="swimlane;fontStyle=1;align=center;verticalAlign=top;childLayout=stackLayout;horizontal=1;startSize=26;horizontalStack=0;resizeParent=1;resizeParentMax=0;resizeLast=0;collapsible=1;marginBottom=0;whiteSpace=wrap;html=1;" vertex="1" parent="1">
          <mxGeometry x="74" y="2006" width="229" height="86" as="geometry" />
        </mxCell>
        <mxCell id="2Bdbf0oeXUwK7qes-A6N-83" value="" style="line;strokeWidth=1;fillColor=none;align=left;verticalAlign=middle;spacingTop=-1;spacingLeft=3;spacingRight=3;rotatable=0;labelPosition=right;points=[];portConstraint=eastwest;strokeColor=inherit;" vertex="1" parent="2Bdbf0oeXUwK7qes-A6N-81">
          <mxGeometry y="26" width="229" height="8" as="geometry" />
        </mxCell>
        <mxCell id="2Bdbf0oeXUwK7qes-A6N-84" value="+ start( ): void" style="text;strokeColor=none;fillColor=none;align=left;verticalAlign=top;spacingLeft=4;spacingRight=4;overflow=hidden;rotatable=0;points=[[0,0.5],[1,0.5]];portConstraint=eastwest;whiteSpace=wrap;html=1;" vertex="1" parent="2Bdbf0oeXUwK7qes-A6N-81">
          <mxGeometry y="34" width="229" height="26" as="geometry" />
        </mxCell>
        <mxCell id="2Bdbf0oeXUwK7qes-A6N-85" value="+ stop( ): void" style="text;strokeColor=none;fillColor=none;align=left;verticalAlign=top;spacingLeft=4;spacingRight=4;overflow=hidden;rotatable=0;points=[[0,0.5],[1,0.5]];portConstraint=eastwest;whiteSpace=wrap;html=1;" vertex="1" parent="2Bdbf0oeXUwK7qes-A6N-81">
          <mxGeometry y="60" width="229" height="26" as="geometry" />
        </mxCell>
        <mxCell id="2Bdbf0oeXUwK7qes-A6N-88" value="Recruit" style="swimlane;fontStyle=1;align=center;verticalAlign=top;childLayout=stackLayout;horizontal=1;startSize=26;horizontalStack=0;resizeParent=1;resizeParentMax=0;resizeLast=0;collapsible=1;marginBottom=0;whiteSpace=wrap;html=1;" vertex="1" parent="1">
          <mxGeometry x="80" y="2535" width="229" height="242" as="geometry" />
        </mxCell>
        <mxCell id="2Bdbf0oeXUwK7qes-A6N-89" value="~ gender: char" style="text;strokeColor=none;fillColor=none;align=left;verticalAlign=top;spacingLeft=4;spacingRight=4;overflow=hidden;rotatable=0;points=[[0,0.5],[1,0.5]];portConstraint=eastwest;whiteSpace=wrap;html=1;" vertex="1" parent="2Bdbf0oeXUwK7qes-A6N-88">
          <mxGeometry y="26" width="229" height="26" as="geometry" />
        </mxCell>
        <mxCell id="2Bdbf0oeXUwK7qes-A6N-99" value="- name: String" style="text;strokeColor=none;fillColor=none;align=left;verticalAlign=top;spacingLeft=4;spacingRight=4;overflow=hidden;rotatable=0;points=[[0,0.5],[1,0.5]];portConstraint=eastwest;whiteSpace=wrap;html=1;" vertex="1" parent="2Bdbf0oeXUwK7qes-A6N-88">
          <mxGeometry y="52" width="229" height="26" as="geometry" />
        </mxCell>
        <mxCell id="2Bdbf0oeXUwK7qes-A6N-100" value="- phone: String[2]" style="text;strokeColor=none;fillColor=none;align=left;verticalAlign=top;spacingLeft=4;spacingRight=4;overflow=hidden;rotatable=0;points=[[0,0.5],[1,0.5]];portConstraint=eastwest;whiteSpace=wrap;html=1;" vertex="1" parent="2Bdbf0oeXUwK7qes-A6N-88">
          <mxGeometry y="78" width="229" height="26" as="geometry" />
        </mxCell>
        <mxCell id="2Bdbf0oeXUwK7qes-A6N-90" value="" style="line;strokeWidth=1;fillColor=none;align=left;verticalAlign=middle;spacingTop=-1;spacingLeft=3;spacingRight=3;rotatable=0;labelPosition=right;points=[];portConstraint=eastwest;strokeColor=inherit;" vertex="1" parent="2Bdbf0oeXUwK7qes-A6N-88">
          <mxGeometry y="104" width="229" height="8" as="geometry" />
        </mxCell>
        <mxCell id="2Bdbf0oeXUwK7qes-A6N-91" value="+ Recruit( )" style="text;strokeColor=none;fillColor=none;align=left;verticalAlign=top;spacingLeft=4;spacingRight=4;overflow=hidden;rotatable=0;points=[[0,0.5],[1,0.5]];portConstraint=eastwest;whiteSpace=wrap;html=1;" vertex="1" parent="2Bdbf0oeXUwK7qes-A6N-88">
          <mxGeometry y="112" width="229" height="26" as="geometry" />
        </mxCell>
        <mxCell id="2Bdbf0oeXUwK7qes-A6N-92" value="+ setGender(s: char): void" style="text;strokeColor=none;fillColor=none;align=left;verticalAlign=top;spacingLeft=4;spacingRight=4;overflow=hidden;rotatable=0;points=[[0,0.5],[1,0.5]];portConstraint=eastwest;whiteSpace=wrap;html=1;" vertex="1" parent="2Bdbf0oeXUwK7qes-A6N-88">
          <mxGeometry y="138" width="229" height="26" as="geometry" />
        </mxCell>
        <mxCell id="2Bdbf0oeXUwK7qes-A6N-93" value="+ getGender( ): char" style="text;strokeColor=none;fillColor=none;align=left;verticalAlign=top;spacingLeft=4;spacingRight=4;overflow=hidden;rotatable=0;points=[[0,0.5],[1,0.5]];portConstraint=eastwest;whiteSpace=wrap;html=1;" vertex="1" parent="2Bdbf0oeXUwK7qes-A6N-88">
          <mxGeometry y="164" width="229" height="26" as="geometry" />
        </mxCell>
        <mxCell id="2Bdbf0oeXUwK7qes-A6N-101" value="+ getName( ): String" style="text;strokeColor=none;fillColor=none;align=left;verticalAlign=top;spacingLeft=4;spacingRight=4;overflow=hidden;rotatable=0;points=[[0,0.5],[1,0.5]];portConstraint=eastwest;whiteSpace=wrap;html=1;" vertex="1" parent="2Bdbf0oeXUwK7qes-A6N-88">
          <mxGeometry y="190" width="229" height="26" as="geometry" />
        </mxCell>
        <mxCell id="2Bdbf0oeXUwK7qes-A6N-102" value="+ setName(n: String): void" style="text;strokeColor=none;fillColor=none;align=left;verticalAlign=top;spacingLeft=4;spacingRight=4;overflow=hidden;rotatable=0;points=[[0,0.5],[1,0.5]];portConstraint=eastwest;whiteSpace=wrap;html=1;" vertex="1" parent="2Bdbf0oeXUwK7qes-A6N-88">
          <mxGeometry y="216" width="229" height="26" as="geometry" />
        </mxCell>
        <mxCell id="2Bdbf0oeXUwK7qes-A6N-95" value="Weapon" style="swimlane;fontStyle=1;align=center;verticalAlign=top;childLayout=stackLayout;horizontal=1;startSize=26;horizontalStack=0;resizeParent=1;resizeParentMax=0;resizeLast=0;collapsible=1;marginBottom=0;whiteSpace=wrap;html=1;" vertex="1" parent="1">
          <mxGeometry x="766" y="2709" width="229" height="164" as="geometry" />
        </mxCell>
        <mxCell id="2Bdbf0oeXUwK7qes-A6N-97" value="- type: String" style="text;strokeColor=none;fillColor=none;align=left;verticalAlign=top;spacingLeft=4;spacingRight=4;overflow=hidden;rotatable=0;points=[[0,0.5],[1,0.5]];portConstraint=eastwest;whiteSpace=wrap;html=1;" vertex="1" parent="2Bdbf0oeXUwK7qes-A6N-95">
          <mxGeometry y="26" width="229" height="26" as="geometry" />
        </mxCell>
        <mxCell id="2Bdbf0oeXUwK7qes-A6N-96" value="" style="line;strokeWidth=1;fillColor=none;align=left;verticalAlign=middle;spacingTop=-1;spacingLeft=3;spacingRight=3;rotatable=0;labelPosition=right;points=[];portConstraint=eastwest;strokeColor=inherit;" vertex="1" parent="2Bdbf0oeXUwK7qes-A6N-95">
          <mxGeometry y="52" width="229" height="8" as="geometry" />
        </mxCell>
        <mxCell id="2Bdbf0oeXUwK7qes-A6N-98" value="+ Weapon( )" style="text;strokeColor=none;fillColor=none;align=left;verticalAlign=top;spacingLeft=4;spacingRight=4;overflow=hidden;rotatable=0;points=[[0,0.5],[1,0.5]];portConstraint=eastwest;whiteSpace=wrap;html=1;" vertex="1" parent="2Bdbf0oeXUwK7qes-A6N-95">
          <mxGeometry y="60" width="229" height="26" as="geometry" />
        </mxCell>
        <mxCell id="2Bdbf0oeXUwK7qes-A6N-103" value="# shoot( ): void" style="text;strokeColor=none;fillColor=none;align=left;verticalAlign=top;spacingLeft=4;spacingRight=4;overflow=hidden;rotatable=0;points=[[0,0.5],[1,0.5]];portConstraint=eastwest;whiteSpace=wrap;html=1;" vertex="1" parent="2Bdbf0oeXUwK7qes-A6N-95">
          <mxGeometry y="86" width="229" height="26" as="geometry" />
        </mxCell>
        <mxCell id="2Bdbf0oeXUwK7qes-A6N-104" value="# reload( ): void" style="text;strokeColor=none;fillColor=none;align=left;verticalAlign=top;spacingLeft=4;spacingRight=4;overflow=hidden;rotatable=0;points=[[0,0.5],[1,0.5]];portConstraint=eastwest;whiteSpace=wrap;html=1;" vertex="1" parent="2Bdbf0oeXUwK7qes-A6N-95">
          <mxGeometry y="112" width="229" height="26" as="geometry" />
        </mxCell>
        <mxCell id="2Bdbf0oeXUwK7qes-A6N-105" value="- isEmpty( ): Boolean" style="text;strokeColor=none;fillColor=none;align=left;verticalAlign=top;spacingLeft=4;spacingRight=4;overflow=hidden;rotatable=0;points=[[0,0.5],[1,0.5]];portConstraint=eastwest;whiteSpace=wrap;html=1;" vertex="1" parent="2Bdbf0oeXUwK7qes-A6N-95">
          <mxGeometry y="138" width="229" height="26" as="geometry" />
        </mxCell>
        <mxCell id="2Bdbf0oeXUwK7qes-A6N-106" value="Vehicle" style="swimlane;fontStyle=1;align=center;verticalAlign=top;childLayout=stackLayout;horizontal=1;startSize=26;horizontalStack=0;resizeParent=1;resizeParentMax=0;resizeLast=0;collapsible=1;marginBottom=0;whiteSpace=wrap;html=1;" vertex="1" parent="1">
          <mxGeometry x="437" y="2535" width="229" height="86" as="geometry" />
        </mxCell>
        <mxCell id="2Bdbf0oeXUwK7qes-A6N-108" value="" style="line;strokeWidth=1;fillColor=none;align=left;verticalAlign=middle;spacingTop=-1;spacingLeft=3;spacingRight=3;rotatable=0;labelPosition=right;points=[];portConstraint=eastwest;strokeColor=inherit;" vertex="1" parent="2Bdbf0oeXUwK7qes-A6N-106">
          <mxGeometry y="26" width="229" height="8" as="geometry" />
        </mxCell>
        <mxCell id="2Bdbf0oeXUwK7qes-A6N-111" value="+ start( ): void" style="text;strokeColor=none;fillColor=none;align=left;verticalAlign=top;spacingLeft=4;spacingRight=4;overflow=hidden;rotatable=0;points=[[0,0.5],[1,0.5]];portConstraint=eastwest;whiteSpace=wrap;html=1;" vertex="1" parent="2Bdbf0oeXUwK7qes-A6N-106">
          <mxGeometry y="34" width="229" height="26" as="geometry" />
        </mxCell>
        <mxCell id="2Bdbf0oeXUwK7qes-A6N-112" value="+ stop( ): void" style="text;strokeColor=none;fillColor=none;align=left;verticalAlign=top;spacingLeft=4;spacingRight=4;overflow=hidden;rotatable=0;points=[[0,0.5],[1,0.5]];portConstraint=eastwest;whiteSpace=wrap;html=1;" vertex="1" parent="2Bdbf0oeXUwK7qes-A6N-106">
          <mxGeometry y="60" width="229" height="26" as="geometry" />
        </mxCell>
        <mxCell id="2Bdbf0oeXUwK7qes-A6N-133" style="edgeStyle=orthogonalEdgeStyle;rounded=0;orthogonalLoop=1;jettySize=auto;html=1;endArrow=block;endFill=0;endSize=15;" edge="1" parent="1" source="2Bdbf0oeXUwK7qes-A6N-113" target="2Bdbf0oeXUwK7qes-A6N-106">
          <mxGeometry relative="1" as="geometry" />
        </mxCell>
        <mxCell id="2Bdbf0oeXUwK7qes-A6N-113" value="Tank" style="swimlane;fontStyle=1;align=center;verticalAlign=top;childLayout=stackLayout;horizontal=1;startSize=26;horizontalStack=0;resizeParent=1;resizeParentMax=0;resizeLast=0;collapsible=1;marginBottom=0;whiteSpace=wrap;html=1;" vertex="1" parent="1">
          <mxGeometry x="437" y="2700" width="229" height="242" as="geometry" />
        </mxCell>
        <mxCell id="2Bdbf0oeXUwK7qes-A6N-114" value="- gun: Weapon" style="text;strokeColor=none;fillColor=none;align=left;verticalAlign=top;spacingLeft=4;spacingRight=4;overflow=hidden;rotatable=0;points=[[0,0.5],[1,0.5]];portConstraint=eastwest;whiteSpace=wrap;html=1;" vertex="1" parent="2Bdbf0oeXUwK7qes-A6N-113">
          <mxGeometry y="26" width="229" height="26" as="geometry" />
        </mxCell>
        <mxCell id="2Bdbf0oeXUwK7qes-A6N-120" value="- personnel: Soldier[2]" style="text;strokeColor=none;fillColor=none;align=left;verticalAlign=top;spacingLeft=4;spacingRight=4;overflow=hidden;rotatable=0;points=[[0,0.5],[1,0.5]];portConstraint=eastwest;whiteSpace=wrap;html=1;" vertex="1" parent="2Bdbf0oeXUwK7qes-A6N-113">
          <mxGeometry y="52" width="229" height="26" as="geometry" />
        </mxCell>
        <mxCell id="2Bdbf0oeXUwK7qes-A6N-121" value="&lt;u&gt;- idNumber: int&lt;/u&gt;" style="text;strokeColor=none;fillColor=none;align=left;verticalAlign=top;spacingLeft=4;spacingRight=4;overflow=hidden;rotatable=0;points=[[0,0.5],[1,0.5]];portConstraint=eastwest;whiteSpace=wrap;html=1;" vertex="1" parent="2Bdbf0oeXUwK7qes-A6N-113">
          <mxGeometry y="78" width="229" height="26" as="geometry" />
        </mxCell>
        <mxCell id="2Bdbf0oeXUwK7qes-A6N-115" value="" style="line;strokeWidth=1;fillColor=none;align=left;verticalAlign=middle;spacingTop=-1;spacingLeft=3;spacingRight=3;rotatable=0;labelPosition=right;points=[];portConstraint=eastwest;strokeColor=inherit;" vertex="1" parent="2Bdbf0oeXUwK7qes-A6N-113">
          <mxGeometry y="104" width="229" height="8" as="geometry" />
        </mxCell>
        <mxCell id="2Bdbf0oeXUwK7qes-A6N-116" value="+ Tank( )" style="text;strokeColor=none;fillColor=none;align=left;verticalAlign=top;spacingLeft=4;spacingRight=4;overflow=hidden;rotatable=0;points=[[0,0.5],[1,0.5]];portConstraint=eastwest;whiteSpace=wrap;html=1;" vertex="1" parent="2Bdbf0oeXUwK7qes-A6N-113">
          <mxGeometry y="112" width="229" height="26" as="geometry" />
        </mxCell>
        <mxCell id="2Bdbf0oeXUwK7qes-A6N-117" value="+ addTroops(cst: Soldier): void" style="text;strokeColor=none;fillColor=none;align=left;verticalAlign=top;spacingLeft=4;spacingRight=4;overflow=hidden;rotatable=0;points=[[0,0.5],[1,0.5]];portConstraint=eastwest;whiteSpace=wrap;html=1;" vertex="1" parent="2Bdbf0oeXUwK7qes-A6N-113">
          <mxGeometry y="138" width="229" height="26" as="geometry" />
        </mxCell>
        <mxCell id="2Bdbf0oeXUwK7qes-A6N-118" value="+ getTroops( ): Soldier" style="text;strokeColor=none;fillColor=none;align=left;verticalAlign=top;spacingLeft=4;spacingRight=4;overflow=hidden;rotatable=0;points=[[0,0.5],[1,0.5]];portConstraint=eastwest;whiteSpace=wrap;html=1;" vertex="1" parent="2Bdbf0oeXUwK7qes-A6N-113">
          <mxGeometry y="164" width="229" height="26" as="geometry" />
        </mxCell>
        <mxCell id="2Bdbf0oeXUwK7qes-A6N-119" value="+ start( ): void" style="text;strokeColor=none;fillColor=none;align=left;verticalAlign=top;spacingLeft=4;spacingRight=4;overflow=hidden;rotatable=0;points=[[0,0.5],[1,0.5]];portConstraint=eastwest;whiteSpace=wrap;html=1;" vertex="1" parent="2Bdbf0oeXUwK7qes-A6N-113">
          <mxGeometry y="190" width="229" height="26" as="geometry" />
        </mxCell>
        <mxCell id="2Bdbf0oeXUwK7qes-A6N-122" value="+ stop( ): void" style="text;strokeColor=none;fillColor=none;align=left;verticalAlign=top;spacingLeft=4;spacingRight=4;overflow=hidden;rotatable=0;points=[[0,0.5],[1,0.5]];portConstraint=eastwest;whiteSpace=wrap;html=1;" vertex="1" parent="2Bdbf0oeXUwK7qes-A6N-113">
          <mxGeometry y="216" width="229" height="26" as="geometry" />
        </mxCell>
        <mxCell id="2Bdbf0oeXUwK7qes-A6N-134" style="edgeStyle=orthogonalEdgeStyle;rounded=0;orthogonalLoop=1;jettySize=auto;html=1;endArrow=block;endFill=0;endSize=15;" edge="1" parent="1" source="2Bdbf0oeXUwK7qes-A6N-123" target="2Bdbf0oeXUwK7qes-A6N-88">
          <mxGeometry relative="1" as="geometry" />
        </mxCell>
        <mxCell id="2Bdbf0oeXUwK7qes-A6N-123" value="Soldier" style="swimlane;fontStyle=1;align=center;verticalAlign=top;childLayout=stackLayout;horizontal=1;startSize=26;horizontalStack=0;resizeParent=1;resizeParentMax=0;resizeLast=0;collapsible=1;marginBottom=0;whiteSpace=wrap;html=1;" vertex="1" parent="1">
          <mxGeometry x="80" y="2847" width="229" height="164" as="geometry" />
        </mxCell>
        <mxCell id="2Bdbf0oeXUwK7qes-A6N-124" value="- id: String" style="text;strokeColor=none;fillColor=none;align=left;verticalAlign=top;spacingLeft=4;spacingRight=4;overflow=hidden;rotatable=0;points=[[0,0.5],[1,0.5]];portConstraint=eastwest;whiteSpace=wrap;html=1;" vertex="1" parent="2Bdbf0oeXUwK7qes-A6N-123">
          <mxGeometry y="26" width="229" height="26" as="geometry" />
        </mxCell>
        <mxCell id="2Bdbf0oeXUwK7qes-A6N-125" value="- Soldier( )" style="text;strokeColor=none;fillColor=none;align=left;verticalAlign=top;spacingLeft=4;spacingRight=4;overflow=hidden;rotatable=0;points=[[0,0.5],[1,0.5]];portConstraint=eastwest;whiteSpace=wrap;html=1;" vertex="1" parent="2Bdbf0oeXUwK7qes-A6N-123">
          <mxGeometry y="52" width="229" height="26" as="geometry" />
        </mxCell>
        <mxCell id="2Bdbf0oeXUwK7qes-A6N-127" value="" style="line;strokeWidth=1;fillColor=none;align=left;verticalAlign=middle;spacingTop=-1;spacingLeft=3;spacingRight=3;rotatable=0;labelPosition=right;points=[];portConstraint=eastwest;strokeColor=inherit;" vertex="1" parent="2Bdbf0oeXUwK7qes-A6N-123">
          <mxGeometry y="78" width="229" height="8" as="geometry" />
        </mxCell>
        <mxCell id="2Bdbf0oeXUwK7qes-A6N-128" value="+ Soldier(String n)" style="text;strokeColor=none;fillColor=none;align=left;verticalAlign=top;spacingLeft=4;spacingRight=4;overflow=hidden;rotatable=0;points=[[0,0.5],[1,0.5]];portConstraint=eastwest;whiteSpace=wrap;html=1;" vertex="1" parent="2Bdbf0oeXUwK7qes-A6N-123">
          <mxGeometry y="86" width="229" height="26" as="geometry" />
        </mxCell>
        <mxCell id="2Bdbf0oeXUwK7qes-A6N-129" value="+ getID( ): Soldier" style="text;strokeColor=none;fillColor=none;align=left;verticalAlign=top;spacingLeft=4;spacingRight=4;overflow=hidden;rotatable=0;points=[[0,0.5],[1,0.5]];portConstraint=eastwest;whiteSpace=wrap;html=1;" vertex="1" parent="2Bdbf0oeXUwK7qes-A6N-123">
          <mxGeometry y="112" width="229" height="26" as="geometry" />
        </mxCell>
        <mxCell id="2Bdbf0oeXUwK7qes-A6N-130" value="+ setID(n: String): void" style="text;strokeColor=none;fillColor=none;align=left;verticalAlign=top;spacingLeft=4;spacingRight=4;overflow=hidden;rotatable=0;points=[[0,0.5],[1,0.5]];portConstraint=eastwest;whiteSpace=wrap;html=1;" vertex="1" parent="2Bdbf0oeXUwK7qes-A6N-123">
          <mxGeometry y="138" width="229" height="26" as="geometry" />
        </mxCell>
        <mxCell id="2Bdbf0oeXUwK7qes-A6N-135" style="edgeStyle=orthogonalEdgeStyle;rounded=0;orthogonalLoop=1;jettySize=auto;html=1;endArrow=diamondThin;endFill=1;endSize=15;" edge="1" parent="1" source="2Bdbf0oeXUwK7qes-A6N-121" target="2Bdbf0oeXUwK7qes-A6N-95">
          <mxGeometry relative="1" as="geometry" />
        </mxCell>
        <mxCell id="2Bdbf0oeXUwK7qes-A6N-136" style="edgeStyle=orthogonalEdgeStyle;rounded=0;orthogonalLoop=1;jettySize=auto;html=1;entryX=1;entryY=0.5;entryDx=0;entryDy=0;endSize=15;endArrow=diamondThin;endFill=1;" edge="1" parent="1" source="2Bdbf0oeXUwK7qes-A6N-116" target="2Bdbf0oeXUwK7qes-A6N-125">
          <mxGeometry relative="1" as="geometry" />
        </mxCell>
        <mxCell id="2Bdbf0oeXUwK7qes-A6N-137" value="&amp;lt;&amp;lt;interface&amp;gt;&amp;gt;&lt;br&gt;Abba" style="swimlane;fontStyle=1;align=center;verticalAlign=top;childLayout=stackLayout;horizontal=1;startSize=39;horizontalStack=0;resizeParent=1;resizeParentMax=0;resizeLast=0;collapsible=1;marginBottom=0;whiteSpace=wrap;html=1;" vertex="1" parent="1">
          <mxGeometry x="133" y="3349" width="229" height="73" as="geometry" />
        </mxCell>
        <mxCell id="2Bdbf0oeXUwK7qes-A6N-140" value="" style="line;strokeWidth=1;fillColor=none;align=left;verticalAlign=middle;spacingTop=-1;spacingLeft=3;spacingRight=3;rotatable=0;labelPosition=right;points=[];portConstraint=eastwest;strokeColor=inherit;" vertex="1" parent="2Bdbf0oeXUwK7qes-A6N-137">
          <mxGeometry y="39" width="229" height="8" as="geometry" />
        </mxCell>
        <mxCell id="2Bdbf0oeXUwK7qes-A6N-141" value="+ song(s: String): void" style="text;strokeColor=none;fillColor=none;align=left;verticalAlign=top;spacingLeft=4;spacingRight=4;overflow=hidden;rotatable=0;points=[[0,0.5],[1,0.5]];portConstraint=eastwest;whiteSpace=wrap;html=1;" vertex="1" parent="2Bdbf0oeXUwK7qes-A6N-137">
          <mxGeometry y="47" width="229" height="26" as="geometry" />
        </mxCell>
        <mxCell id="2Bdbf0oeXUwK7qes-A6N-144" value="BeeGees" style="swimlane;fontStyle=1;align=center;verticalAlign=top;childLayout=stackLayout;horizontal=1;startSize=26;horizontalStack=0;resizeParent=1;resizeParentMax=0;resizeLast=0;collapsible=1;marginBottom=0;whiteSpace=wrap;html=1;" vertex="1" parent="1">
          <mxGeometry x="133" y="3515" width="229" height="112" as="geometry" />
        </mxCell>
        <mxCell id="2Bdbf0oeXUwK7qes-A6N-147" value="" style="line;strokeWidth=1;fillColor=none;align=left;verticalAlign=middle;spacingTop=-1;spacingLeft=3;spacingRight=3;rotatable=0;labelPosition=right;points=[];portConstraint=eastwest;strokeColor=inherit;" vertex="1" parent="2Bdbf0oeXUwK7qes-A6N-144">
          <mxGeometry y="26" width="229" height="8" as="geometry" />
        </mxCell>
        <mxCell id="2Bdbf0oeXUwK7qes-A6N-148" value="# beats: int" style="text;strokeColor=none;fillColor=none;align=left;verticalAlign=top;spacingLeft=4;spacingRight=4;overflow=hidden;rotatable=0;points=[[0,0.5],[1,0.5]];portConstraint=eastwest;whiteSpace=wrap;html=1;" vertex="1" parent="2Bdbf0oeXUwK7qes-A6N-144">
          <mxGeometry y="34" width="229" height="26" as="geometry" />
        </mxCell>
        <mxCell id="2Bdbf0oeXUwK7qes-A6N-149" value="+ BeeGees(beats: int)" style="text;strokeColor=none;fillColor=none;align=left;verticalAlign=top;spacingLeft=4;spacingRight=4;overflow=hidden;rotatable=0;points=[[0,0.5],[1,0.5]];portConstraint=eastwest;whiteSpace=wrap;html=1;" vertex="1" parent="2Bdbf0oeXUwK7qes-A6N-144">
          <mxGeometry y="60" width="229" height="26" as="geometry" />
        </mxCell>
        <mxCell id="2Bdbf0oeXUwK7qes-A6N-150" value="+ beater(tempo: int): int" style="text;strokeColor=none;fillColor=none;align=left;verticalAlign=top;spacingLeft=4;spacingRight=4;overflow=hidden;rotatable=0;points=[[0,0.5],[1,0.5]];portConstraint=eastwest;whiteSpace=wrap;html=1;" vertex="1" parent="2Bdbf0oeXUwK7qes-A6N-144">
          <mxGeometry y="86" width="229" height="26" as="geometry" />
        </mxCell>
        <mxCell id="2Bdbf0oeXUwK7qes-A6N-157" style="edgeStyle=orthogonalEdgeStyle;rounded=0;orthogonalLoop=1;jettySize=auto;html=1;endSize=15;endArrow=block;endFill=0;" edge="1" parent="1" source="2Bdbf0oeXUwK7qes-A6N-151" target="2Bdbf0oeXUwK7qes-A6N-144">
          <mxGeometry relative="1" as="geometry" />
        </mxCell>
        <mxCell id="2Bdbf0oeXUwK7qes-A6N-158" style="edgeStyle=orthogonalEdgeStyle;rounded=0;orthogonalLoop=1;jettySize=auto;html=1;dashed=1;endArrow=open;endFill=0;" edge="1" parent="1" source="2Bdbf0oeXUwK7qes-A6N-151" target="2Bdbf0oeXUwK7qes-A6N-137">
          <mxGeometry relative="1" as="geometry">
            <Array as="points">
              <mxPoint x="557" y="3465" />
              <mxPoint x="248" y="3465" />
            </Array>
          </mxGeometry>
        </mxCell>
        <mxCell id="2Bdbf0oeXUwK7qes-A6N-151" value="Beatles" style="swimlane;fontStyle=1;align=center;verticalAlign=top;childLayout=stackLayout;horizontal=1;startSize=26;horizontalStack=0;resizeParent=1;resizeParentMax=0;resizeLast=0;collapsible=1;marginBottom=0;whiteSpace=wrap;html=1;" vertex="1" parent="1">
          <mxGeometry x="442" y="3502" width="229" height="138" as="geometry" />
        </mxCell>
        <mxCell id="2Bdbf0oeXUwK7qes-A6N-156" value="- songName: String" style="text;strokeColor=none;fillColor=none;align=left;verticalAlign=top;spacingLeft=4;spacingRight=4;overflow=hidden;rotatable=0;points=[[0,0.5],[1,0.5]];portConstraint=eastwest;whiteSpace=wrap;html=1;" vertex="1" parent="2Bdbf0oeXUwK7qes-A6N-151">
          <mxGeometry y="26" width="229" height="26" as="geometry" />
        </mxCell>
        <mxCell id="2Bdbf0oeXUwK7qes-A6N-152" value="" style="line;strokeWidth=1;fillColor=none;align=left;verticalAlign=middle;spacingTop=-1;spacingLeft=3;spacingRight=3;rotatable=0;labelPosition=right;points=[];portConstraint=eastwest;strokeColor=inherit;" vertex="1" parent="2Bdbf0oeXUwK7qes-A6N-151">
          <mxGeometry y="52" width="229" height="8" as="geometry" />
        </mxCell>
        <mxCell id="2Bdbf0oeXUwK7qes-A6N-153" value="+ Beatles(beats: int)" style="text;strokeColor=none;fillColor=none;align=left;verticalAlign=top;spacingLeft=4;spacingRight=4;overflow=hidden;rotatable=0;points=[[0,0.5],[1,0.5]];portConstraint=eastwest;whiteSpace=wrap;html=1;" vertex="1" parent="2Bdbf0oeXUwK7qes-A6N-151">
          <mxGeometry y="60" width="229" height="26" as="geometry" />
        </mxCell>
        <mxCell id="2Bdbf0oeXUwK7qes-A6N-154" value="+ song(songName: String): void" style="text;strokeColor=none;fillColor=none;align=left;verticalAlign=top;spacingLeft=4;spacingRight=4;overflow=hidden;rotatable=0;points=[[0,0.5],[1,0.5]];portConstraint=eastwest;whiteSpace=wrap;html=1;" vertex="1" parent="2Bdbf0oeXUwK7qes-A6N-151">
          <mxGeometry y="86" width="229" height="26" as="geometry" />
        </mxCell>
        <mxCell id="2Bdbf0oeXUwK7qes-A6N-155" value="+ songBeater( ): void" style="text;strokeColor=none;fillColor=none;align=left;verticalAlign=top;spacingLeft=4;spacingRight=4;overflow=hidden;rotatable=0;points=[[0,0.5],[1,0.5]];portConstraint=eastwest;whiteSpace=wrap;html=1;" vertex="1" parent="2Bdbf0oeXUwK7qes-A6N-151">
          <mxGeometry y="112" width="229" height="26" as="geometry" />
        </mxCell>
      </root>
    </mxGraphModel>
  </diagram>
</mxfile>
